<?xml version="1.0" encoding="utf-8"?>
<!-- Generator: Adobe Illustrator 19.1.0, SVG Export Plug-In . SVG Version: 6.00 Build 0)  -->
<svg version="1.1" id="Layer_1" xmlns="http://www.w3.org/2000/svg" xmlns:xlink="http://www.w3.org/1999/xlink" x="0px" y="0px"
	 width="11.351px" height="12.793px" viewBox="0 0 11.351 12.793" style="enable-background:new 0 0 11.351 12.793;"
	 xml:space="preserve">
<style type="text/css">
	.st0{fill:none;stroke:#000000;stroke-width:1.8;stroke-linecap:round;stroke-miterlimit:10;}
</style>
<g>
	<path d="M8.18,2.15c1.877,0.916,3.171,2.828,3.171,5.033c0,3.093-2.546,5.609-5.675,5.609C2.546,12.793,0,10.277,0,7.183
		c0-2.168,1.25-4.052,3.076-4.986l0,2.163C2.293,5.058,1.8,6.065,1.8,7.183c0,2.101,1.739,3.81,3.876,3.81
		c2.137,0,3.875-1.709,3.875-3.81c0-1.165-0.535-2.21-1.376-2.909L8.18,2.15z"/>
</g>
<line class="st0" x1="5.676" y1="0.915" x2="5.676" y2="5.571"/>
</svg>
