<?xml version="1.0" encoding="UTF-8" standalone="no"?>
<svg width="11px" height="13px" viewBox="0 0 11 13" version="1.1" xmlns="http://www.w3.org/2000/svg" xmlns:xlink="http://www.w3.org/1999/xlink" xmlns:sketch="http://www.bohemiancoding.com/sketch/ns">
    <!-- Generator: Sketch 3.3.3 (12081) - http://www.bohemiancoding.com/sketch -->
    <title>Slice 1</title>
    <desc>Created with Sketch.</desc>
    <defs></defs>
    <g id="Page-1" stroke="none" stroke-width="1" fill="none" fill-rule="evenodd" sketch:type="MSPage">
        <path d="M1,4 L10,4 L10,13 L1,13 L1,4 Z M3,6.03835227 L3,10.9995561 L4,10.9995561 L4,6.03835227 L3,6.03835227 Z M5,6.03835227 L5,10.9995561 L6,10.9995561 L6,6.03835227 L5,6.03835227 Z M7,6.03835227 L7,10.9995561 L8,10.9995561 L8,6.03835227 L7,6.03835227 Z" id="Rectangle-1" fill="#000000" sketch:type="MSShapeGroup"></path>
        <path d="M0,1 L11,1 L11,3 L0,3 L0,1 Z M4,0 L7,0 L7,1 L4,1 L4,0 Z" id="Rectangle-2" fill="#000000" sketch:type="MSShapeGroup"></path>
    </g>
</svg>