<?xml version="1.0" encoding="UTF-8" standalone="no"?>
<svg width="28px" height="21px" viewBox="0 0 28 21" version="1.1" xmlns="http://www.w3.org/2000/svg" xmlns:xlink="http://www.w3.org/1999/xlink">
    <!-- Generator: Sketch 3.7.2 (28276) - http://www.bohemiancoding.com/sketch -->
    <title>Slice 14 Copy 2</title>
    <desc>Created with Sketch.</desc>
    <defs></defs>
    <g id="Page-1" stroke="none" stroke-width="1" fill="none" fill-rule="evenodd">
        <g id="Group-12-Copy" transform="translate(0.000000, 2.000000)" fill="#000000">
            <rect id="Rectangle-3-Copy-365" x="0.5" y="2" width="3" height="3"></rect>
            <rect id="Rectangle-3-Copy-366" x="23.5" y="2" width="3" height="3"></rect>
            <rect id="Rectangle-3-Copy-367" x="23.5" y="13" width="3" height="3"></rect>
            <rect id="Rectangle-3-Copy-368" x="0.5" y="13" width="3" height="3"></rect>
            <polygon id="Path-3203-Copy-124" points="16.2711934 0 8.5 10.9207297 13.3721017 10.9207297 12.2084352 18 19.9092293 7.14505447 15.0442566 7.14505447"></polygon>
            <polygon id="Path-1238" points="18.7542114 3 18.5898437 3.97647673 24.5493165 3.97647673 24.5493165 14.1669064 18.5898438 14.1229611 17.9148393 15.1192722 25.5196589 15.1192726 25.5196589 3.00000001"></polygon>
            <polygon id="Path-1238-Copy" transform="translate(6.003533, 9.062502) scale(-1, 1) translate(-6.003533, -9.062502) " points="1.5 3 2.1994496 3.96730167 9.52168302 3.96730165 9.52168302 14.1234065 2.1994496 14.1234064 2.37389249 15.1250029 10.5070668 15.1250033 10.5070668 3"></polygon>
        </g>
    </g>
</svg>