<?xml version="1.0" encoding="UTF-8" standalone="no"?>
<svg width="55px" height="39px" viewBox="0 0 55 39" version="1.1" xmlns="http://www.w3.org/2000/svg" xmlns:xlink="http://www.w3.org/1999/xlink">
    <!-- Generator: Sketch 3.7.2 (28276) - http://www.bohemiancoding.com/sketch -->
    <title>Slice 14 Copy</title>
    <desc>Created with Sketch.</desc>
    <defs></defs>
    <g id="Page-1" stroke="none" stroke-width="1" fill="none" fill-rule="evenodd">
        <g id="Group-11" transform="translate(0.000000, 1.000000)" fill="#000000">
            <rect id="Rectangle-3-Copy-509" x="49.5" y="1.5" width="5" height="5"></rect>
            <rect id="Rectangle-3-Copy-511" x="0.5" y="1.5" width="5" height="5"></rect>
            <rect id="Rectangle-3-Copy-512" x="0.5" y="28.5" width="5" height="5"></rect>
            <rect id="Rectangle-3-Copy-513" x="49.5" y="28.5" width="5" height="5"></rect>
            <polygon id="Path-3203-Copy-169" points="31.8330777 0 16 22.2363914 25.9264503 22.2363914 23.555589 36.6509434 39.2452349 14.5484993 29.3333092 14.5484993"></polygon>
            <polygon id="Path-1238" points="37.5879517 2.99133301 37.1387939 4.99853516 51.0154419 4.99853516 51.0154419 30.0566406 35.697876 29.9663086 34.2567139 32.0142822 52.9920654 32.0142822 52.9920654 2.99133301"></polygon>
            <polygon id="Path-1238-Copy" transform="translate(12.192383, 17.517365) scale(-1, 1) translate(-12.192383, -17.517365) " points="2 3 3.78015137 4.98834229 20.3775024 4.98834229 20.3775024 29.9758911 5.69842529 29.9758911 6.07714844 32.034729 22.3847656 32.034729 22.3847656 3"></polygon>
        </g>
    </g>
</svg>